<svg width="121" height="18" fill="none" xmlns="http://www.w3.org/2000/svg"><path d="M7.26 1.506c.255-.675 1.224-.675 1.48 0l1.657 4.587a.792.792 0 00.74.507h4.07c.752 0 1.08.936.489 1.394L12.8 10.6a.774.774 0 00-.258.873l1.058 4.482c.257.72-.576 1.339-1.207.896L8.46 14.354a.8.8 0 00-.92 0L3.607 16.85c-.63.444-1.464-.176-1.207-.895l1.058-4.482A.774.774 0 003.2 10.6L.304 7.994C-.288 7.536.042 6.6.792 6.6h4.07a.791.791 0 00.74-.507L7.26 1.506zm26 0c.255-.675 1.224-.675 1.48 0l1.657 4.587a.792.792 0 00.74.507h4.07c.752 0 1.08.936.489 1.394L38.8 10.6a.774.774 0 00-.258.873l1.058 4.482c.257.72-.576 1.339-1.206.896l-3.934-2.496a.8.8 0 00-.92 0l-3.933 2.495c-.63.444-1.464-.176-1.207-.895l1.058-4.482a.774.774 0 00-.258-.873l-2.896-2.606c-.591-.458-.262-1.394.488-1.394h4.07a.791.791 0 00.74-.507l1.656-4.587h.001zm26 0c.255-.675 1.224-.675 1.48 0l1.657 4.587a.792.792 0 00.74.507h4.07c.752 0 1.08.936.489 1.394L64.8 10.6a.774.774 0 00-.258.873l1.058 4.482c.257.72-.576 1.339-1.206.896l-3.934-2.496a.8.8 0 00-.92 0l-3.933 2.495c-.63.444-1.464-.176-1.207-.895l1.058-4.482a.774.774 0 00-.258-.873l-2.896-2.606c-.592-.458-.262-1.394.488-1.394h4.07a.791.791 0 00.74-.507l1.657-4.587zm26 0c.255-.675 1.224-.675 1.48 0l1.657 4.587a.792.792 0 00.74.507h4.07c.752 0 1.08.936.489 1.394L90.8 10.6a.774.774 0 00-.258.873l1.058 4.482c.257.72-.576 1.339-1.206.896l-3.934-2.496a.8.8 0 00-.92 0l-3.933 2.495c-.63.444-1.464-.176-1.207-.895l1.058-4.482a.774.774 0 00-.258-.873l-2.896-2.606c-.591-.458-.262-1.394.488-1.394h4.07a.791.791 0 00.74-.507l1.656-4.587h.001z" fill="#FBC400"/><path d="M111.259 1.506c.256-.675 1.225-.675 1.482 0l1.656 4.587a.79.79 0 00.741.507h4.069c.752 0 1.08.936.489 1.394L116.8 10.6a.771.771 0 00-.258.873l1.058 4.482c.257.72-.576 1.339-1.206.896l-3.934-2.496a.8.8 0 00-.92 0l-3.933 2.495c-.63.444-1.464-.176-1.207-.895l1.058-4.482a.775.775 0 00-.258-.873l-2.896-2.606c-.592-.458-.262-1.394.488-1.394h4.07a.79.79 0 00.741-.507l1.656-4.587h0z" fill="#fff" stroke="#7D7D7D" stroke-linecap="round" stroke-linejoin="round"/></svg>