<svg width="54" height="54" fill="none" xmlns="http://www.w3.org/2000/svg"><path d="M50.323 53.667c-28.437.04-50.02-21.8-49.99-49.99A3.341 3.341 0 013.666.333h8.8a3.338 3.338 0 013.297 2.847 41.41 41.41 0 003.383 11.324l.344.74a2.357 2.357 0 01-.767 2.906c-2.727 1.947-3.767 5.864-1.643 8.917a39.44 39.44 0 009.853 9.856c3.057 2.12 6.973 1.08 8.917-1.643a2.356 2.356 0 012.91-.77l.736.34a41.283 41.283 0 0011.324 3.387 3.339 3.339 0 012.846 3.3v8.797a3.334 3.334 0 01-3.336 3.333h-.007z" fill="#fff"/></svg>