<svg width="157" height="193" fill="none" xmlns="http://www.w3.org/2000/svg"><path d="M154.393-.25H99.715l34.792 48.237L154.393-.25zm-115.969 0L58.31 47.987 93.103-.25H38.425zM96.41 18.085L69.96 54.75h52.897L96.409 18.085zM165.402 7.94l-19.295 46.81h46.178L165.402 7.94zm-137.987 0L.12 54.75h46.59L27.415 7.94zM51.231 68.5H.533l92.074 123.75h.219L51.23 68.5zm90.355 0L99.992 192.25h.219L192.285 68.5h-50.699zm-14.848 0H66.08l30.329 89.375L126.738 68.5z" fill="url(#paint0_linear_653_574)"/><defs><linearGradient id="paint0_linear_653_574" x1=".12" y1="-.25" x2="231.655" y2="108.182" gradientUnits="userSpaceOnUse"><stop stop-color="#208275"/><stop offset="1" stop-color="#2DD4BF"/></linearGradient></defs></svg>