<svg width="140" height="140" fill="none" xmlns="http://www.w3.org/2000/svg"><path fill-rule="evenodd" clip-rule="evenodd" d="M66.085.242c-6.82 1.097-13.02 4.91-16.995 10.451l-1.106 1.542-18.907.005c-11.226.002-19.623.105-20.67.25-3.428.48-6.056 2.356-7.51 5.362l-.803 1.659L.02 67.483c-.055 35.131.002 48.367.212 49.444.383 1.964 1.198 3.461 2.664 4.888 1.543 1.502 3.387 2.383 5.56 2.657.943.119 20.9.22 44.35.225l42.637.008v6.437c0 5.447.064 6.568.412 7.287.51 1.052 1.485 1.568 2.966 1.568 1.251 0 .91.242 7.675-5.426 1.701-1.425 3.188-2.59 3.306-2.59.118 0 1.606 1.165 3.306 2.59 6.853 5.74 6.402 5.426 7.793 5.426 1.075 0 1.386-.12 2.193-.844l.941-.844.075-6.802.074-6.802 2.823-.008c5.581-.016 7.801-.649 10.124-2.887.696-.67 1.554-1.863 1.997-2.778l.778-1.603.074-47.973c.055-35.13-.002-48.366-.212-49.444-.796-4.081-3.988-7.01-8.224-7.545-.943-.119-10.229-.22-20.635-.224l-18.921-.008-.932-1.374C87.794 6.05 82.07 2.133 76.09.615c-2.5-.634-7.275-.812-10.005-.373zm6.686 6.09c8.986 1.426 15.58 8.461 16.284 17.376.29 3.684-.753 7.586-3.034 11.34-3.94 6.487-5.902 12.198-6.355 18.502l-.168 2.34H60.503l-.156-2.328c-.407-6.063-2.696-12.72-6.428-18.694-1.163-1.862-2.144-4.226-2.586-6.232-.454-2.063-.38-6.296.146-8.262 1.827-6.838 7.47-12.25 14.239-13.655 3.308-.687 4.688-.762 7.053-.387zm-27.546 12.87c-.872 3.418-.803 8.016.177 11.778.746 2.862 1.338 4.18 3.647 8.11 3.309 5.637 5.073 11.467 5.083 16.794.004 2.423 1.644 4.897 3.84 5.794l.944.386.003 3.14c.002 1.87.143 3.657.348 4.413.818 3.009 3.034 5.667 5.857 7.028l1.601.772v30.064l-.945-.728c-1.743-1.345-3.453-2.237-5.86-3.06l-2.39-.816-25.635-.069-25.636-.068.066-40.998c.054-33.315.129-41.105.398-41.566.182-.313.692-.784 1.134-1.048.775-.462 1.427-.479 19.156-.48h18.354l-.142.554zm86.95-.055c.458.274.981.856 1.162 1.294.267.648.305 8.412.203 41.548l-.126 40.751-25.472.068-25.472.069-1.764.583c-2.327.77-4.483 1.839-6.109 3.028l-1.322.968v-30.04l1.623-.782c2.76-1.33 4.82-3.676 5.727-6.521.348-1.092.46-2.239.46-4.737V62.08l1.07-.466c1.267-.553 2.516-1.747 3.118-2.983.273-.562.511-1.938.645-3.727.41-5.502 1.888-10.451 4.384-14.675 3.294-5.573 4.107-7.48 4.771-11.193.552-3.083.42-7.673-.286-9.957-.126-.408.857-.432 18.21-.43 17.955 0 18.362.01 19.178.498zM18.105 34.364c-2.391.88-2.914 3.763-.97 5.363l.757.625h18.402l.837-.819c1.095-1.072 1.34-2.291.713-3.548-.88-1.764-1.1-1.8-10.795-1.779-4.711.01-8.735.082-8.943.158zm85.452.233c-1.944.938-2.232 3.72-.53 5.123l.768.632h18.401l.842-.824c.463-.453.923-1.14 1.022-1.526.272-1.063-.377-2.59-1.384-3.253-.851-.56-.91-.563-9.573-.557-7.525.004-8.83.06-9.546.405zM17.958 50.075c-.944.403-1.776 1.392-1.996 2.375-.206.917.483 2.349 1.47 3.055.695.498.983.51 12.721.51 11.475 0 12.047-.022 12.825-.483 2.16-1.28 2.016-4.34-.256-5.395-.789-.367-2.156-.411-12.436-.403-9.097.008-11.715.08-12.328.341zm79.257.104c-1.92 1.008-2.239 3.33-.668 4.869.642.628 1.1.83 2.184.959.755.09 6.267.129 12.25.085 10.557-.076 10.898-.093 11.588-.591 1.117-.807 1.701-2.048 1.488-3.163-.188-.98-1.1-2.012-2.116-2.394-.321-.12-5.821-.22-12.222-.22-10.824 0-11.7.033-12.504.455zM74.786 65.025c0 1.898-.118 2.997-.39 3.634-.79 1.854-2.249 2.83-4.27 2.858-1.653.024-3.052-.685-4.03-2.042-.726-1.005-.76-1.17-.845-4.11l-.09-3.061h9.625v2.72zm-56.828.589c-.944.403-1.776 1.392-1.996 2.375-.206.916.483 2.349 1.47 3.054.7.502.95.51 16.007.51 16.993 0 16.148.082 17.06-1.647.513-.97.357-2.724-.307-3.454-1.078-1.184-1.148-1.19-16.774-1.179-11.718.008-14.84.077-15.46.34zm73.019.012c-1.645.706-2.318 2.923-1.356 4.467 1.003 1.612.7 1.583 16.724 1.583 7.963 0 14.839-.07 15.281-.157.441-.086 1.131-.48 1.533-.873a3.038 3.038 0 00-.325-4.662l-.814-.597-15.115-.055c-12.579-.046-15.251.003-15.928.294zM18.41 81.04c-2.898.686-3.36 4.543-.692 5.783.744.345 2.934.39 18.903.39 19.888 0 19.189.054 20.136-1.516.911-1.51.463-3.37-1.045-4.338-.63-.404-1.942-.438-18.575-.475-9.844-.022-18.27.048-18.727.156zm66.975-.063c-2.175.415-3.333 3.207-2.011 4.852 1.156 1.44.358 1.385 20.181 1.384 17.375 0 18.249-.022 18.989-.464.836-.5 1.618-1.843 1.616-2.779-.001-.778-.823-2.054-1.676-2.6-.651-.418-1.796-.448-18.59-.478-9.844-.017-18.173.02-18.509.085zm-29.24 28.195c1.988.304 4.797 1.603 6.338 2.931 1.416 1.22 2.832 3.209 3.488 4.899l.5 1.289H37.616c-31.493 0-29.728.081-30.736-1.405-.382-.563-.488-1.299-.57-3.954-.056-1.795-.036-3.432.045-3.638.13-.332 2.895-.375 24.15-.373 14.961.001 24.619.096 25.64.251zm39.298 4.433v4.686H73.53l.5-1.289c1.491-3.842 5.18-6.911 9.263-7.706 1.059-.207 3.662-.34 6.924-.354l5.227-.023v4.686zm22.36 5.981c.036 5.799-.001 10.544-.083 10.544s-1.302-.975-2.711-2.168c-3.835-3.245-3.856-3.258-5.207-3.258s-1.371.013-5.207 3.258c-1.408 1.193-2.627 2.168-2.708 2.168-.207 0-.182-20.847.026-21.05.094-.093 3.693-.139 7.998-.103l7.827.065.065 10.544zm15.931-7.33c0 5.592-.437 6.033-5.983 6.034l-3.59.001v-9.372h9.573v3.337z" fill="url(#paint0_linear_736_349)"/><defs><linearGradient id="paint0_linear_736_349" x1="0" y1="0" x2="168.577" y2="79.085" gradientUnits="userSpaceOnUse"><stop stop-color="#208275"/><stop offset="1" stop-color="#2DD4BF"/></linearGradient></defs></svg>