<svg width="140" height="140" fill="none" xmlns="http://www.w3.org/2000/svg"><path fill-rule="evenodd" clip-rule="evenodd" d="M80.75.714c-2.089 1.072-2.977 2.433-3.84 5.885-.219.874-.32.966-1.462 1.336-.674.218-2.378.997-3.786 1.73l-2.56 1.333-1.774-.878c-1.576-.781-1.964-.879-3.484-.879-2.397 0-3.53.62-5.842 3.197-2.589 2.887-3.043 3.824-3.04 6.275.002 2.108.14 2.521 1.588 4.736l.755 1.155-.821 2.26c-.701 1.928-.906 2.277-1.398 2.387-2.857.64-4.281 1.44-5.432 3.046-1.049 1.465-1.331 2.729-1.331 5.966 0 3.488.434 4.934 1.945 6.486 1.08 1.109 2.25 1.711 4.184 2.156l1.26.29.673 1.975.673 1.976-.95 1.4c-1.189 1.752-1.448 2.377-1.624 3.91-.28 2.45 1.107 5.117 4.363 8.39 2.1 2.11 4.908 2.443 7.98.945l1.635-.797 2.248 1.228c1.236.675 3.007 1.506 3.935 1.847.928.341 1.764.688 1.858.77.095.083.378.916.631 1.852.543 2.013 1.32 3.284 2.64 4.318 1.397 1.094 2.849 1.46 5.782 1.46 2.857 0 4.306-.348 5.67-1.363 1.282-.953 1.88-1.914 2.654-4.262l.675-2.048 2.08-.762c1.144-.42 2.831-1.186 3.748-1.703l1.668-.94 1.764.855c1.538.746 1.98.856 3.451.861 2.492.009 3.731-.686 6.086-3.412 2.306-2.67 2.73-3.507 2.866-5.652.125-1.96-.169-2.931-1.51-5l-.884-1.363.462-1.178a45.41 45.41 0 00.805-2.247c.333-1.041.374-1.075 1.602-1.344 2.845-.625 5.002-2.343 5.742-4.572.414-1.246.496-6.577.122-7.957-.64-2.367-2.767-4.243-5.549-4.895-.802-.188-1.491-.376-1.532-.418-.041-.043-.375-.922-.742-1.954l-.667-1.876.992-1.464c2.003-2.955 2.162-5.843.465-8.408-1.344-2.03-3.84-4.573-5.049-5.14-1.888-.889-3.853-.8-6.081.273l-1.74.838-2.812-1.481c-1.547-.815-3.383-1.666-4.08-1.891l-1.269-.41-.483-1.88c-.651-2.53-1.665-3.92-3.596-4.925C88.978 0 88.967 0 85.558 0c-3.367 0-3.436.01-4.807.714zm7.135 8.354c.556 2.486 1.04 3.554 1.837 4.055.263.166 1.356.562 2.43.882 2.436.725 5.027 1.968 7.325 3.515 2.374 1.598 2.959 1.6 6.022.021 1.251-.645 2.344-1.086 2.429-.982.085.105.587.736 1.117 1.403l.963 1.214-1.12 1.559c-2.448 3.408-2.527 3.865-1.191 6.93.485 1.112 1.107 2.802 1.382 3.755.951 3.29 1.138 3.467 4.656 4.372l2.418.622.064 1.854.065 1.853-2.314.533c-3.7.85-4.113 1.204-5.007 4.28a39.393 39.393 0 01-1.514 4.124c-1.277 2.872-1.193 3.555.784 6.407l1.486 2.142-1.135 1.345c-.625.74-1.209 1.346-1.299 1.346-.09 0-1.017-.482-2.059-1.07-1.418-.802-2.206-1.097-3.132-1.175-1.155-.098-1.336-.04-2.7.876-2.08 1.397-5.201 2.862-7.398 3.474-2.774.773-3.168 1.234-3.978 4.66l-.644 2.724-1.794-.067-1.795-.066-.615-2.52c-.338-1.387-.81-2.79-1.049-3.12-.45-.62-1.319-1.027-3.987-1.867-1.903-.598-4.727-2.02-6.263-3.154-1.306-.963-2.385-1.468-3.142-1.468-.294 0-1.569.52-2.834 1.155-1.265.636-2.38 1.156-2.478 1.156-.098 0-.646-.612-1.218-1.36l-1.04-1.36.744-1.008c2.829-3.83 2.93-4.35 1.484-7.646-.501-1.143-1.126-2.902-1.389-3.909-.68-2.611-1.323-3.165-4.516-3.893l-2.408-.549V36.29l.844-.228c.464-.126 1.547-.407 2.408-.627 2.269-.577 2.923-1.274 3.634-3.871.31-1.129 1.02-3.052 1.58-4.274 1.386-3.025 1.33-3.658-.557-6.368-.762-1.093-1.38-2.116-1.375-2.271.005-.156.497-.842 1.093-1.525l1.083-1.241 2.45 1.319c3.068 1.65 3.526 1.644 6.16-.09 2.22-1.463 4.248-2.416 6.69-3.144 2.212-.659 2.835-1.044 3.295-2.04.274-.594 1.267-4.598 1.267-5.111 0-.065.835-.118 1.856-.118l1.856.001.53 2.367zM83.23 24.04c-2.409.441-5.512 2.049-7.259 3.76-1.81 1.772-3.274 4.324-3.896 6.79-.45 1.782-.457 5.324-.014 7.12 1.52 6.166 7.23 10.733 13.42 10.733 2.42 0 3.795-.338 6.202-1.524 9.722-4.79 10.547-18.537 1.483-24.715-2.69-1.834-6.826-2.735-9.936-2.164zm5.469 7.376c1.397.694 2.634 1.964 3.428 3.519.538 1.053.623 1.49.626 3.184.003 1.687-.085 2.15-.627 3.281-1.745 3.65-6.156 5.285-9.638 3.572-1.482-.73-2.96-2.28-3.633-3.809-.676-1.537-.679-4.363-.005-5.865.932-2.08 2.078-3.212 4.224-4.168 1.323-.59 4.152-.447 5.625.286zM40.48 79.713c-7.969.786-17.476 4.962-24.864 10.921-.728.587-4.188 2.582-7.69 4.434-6.724 3.556-7.585 4.185-7.87 5.75-.08.436-.073 1.036.015 1.333.088.297 4.173 8.272 9.077 17.722 9.853 18.988 9.506 18.438 11.568 18.346 1.014-.046 1.694-.419 7.68-4.21 3.612-2.288 6.938-4.319 7.39-4.513 1.66-.711 2.428-.517 6.8 1.719 10.868 5.558 20.875 8.78 27.289 8.785 1.974.002 6.918-.558 10.17-1.151 19.005-3.465 39.832-14.922 55.406-30.479 2.435-2.432 3.005-3.14 3.713-4.611.825-1.716.836-1.772.836-4.534 0-2.782-.004-2.805-.874-4.612-2.592-5.384-8.804-8.064-14.223-6.136-2.372.845-18.701 10.576-24.974 14.884-1.21.831-2.227 1.483-2.26 1.449-.033-.034.095-.576.285-1.206.94-3.119-.724-6.507-4.041-8.23-2.04-1.06-4.318-1.543-9.676-2.053-7.53-.715-12.054-1.609-15.42-3.045-1.325-.566-2.06-1.094-3.599-2.59-1.064-1.033-2.42-2.221-3.015-2.64-1.446-1.018-5.702-3.081-7.865-3.812-4.017-1.358-9.46-1.955-13.858-1.521zm9.08 7.237c2.699.603 4.644 1.306 6.928 2.507 1.788.94 2.66 1.601 4.623 3.507 2.597 2.52 4.17 3.493 7.46 4.616 3.34 1.139 9.973 2.26 15.185 2.566 1.362.081 3.172.247 4.024.37 1.69.245 3.738 1.04 3.738 1.451 0 .142-.747.999-1.66 1.904-2.61 2.586-6.588 4.396-12.233 5.566-2.986.62-9.044.564-12.338-.112-1.373-.282-3.084-.72-3.804-.974-3.56-1.258-5.666.092-5.536 3.55.036.957 1.424 2.274 3.062 2.908 5.707 2.206 18.962 2.468 28.91.571 4.545-.867 9.833-2.689 12.548-4.325.708-.426 4.527-2.856 8.487-5.4 6.643-4.268 15.957-9.824 17.778-10.605 1.871-.803 4.601-.019 5.867 1.685.85 1.145.993 2.857.347 4.156-.497 1.002-3.815 4.285-7.682 7.602-4.717 4.045-11.11 8.669-16.086 11.631-2.668 1.589-10.428 5.484-13.305 6.678-10.07 4.179-22.133 6.763-28.202 6.04-5.69-.678-12.991-3.318-22.047-7.972-4.847-2.491-6.378-2.991-8.662-2.824l-1.575.115-7.03-13.469c-3.867-7.407-7.031-13.555-7.03-13.662 0-.399 4.044-2.948 7.086-4.466 4.314-2.154 7.793-3.264 12.598-4.017 1.331-.21 7.005.059 8.55.403zm-27.19 25.242c3.772 7.099 6.878 12.992 6.9 13.095.063.281-7.127 4.787-7.32 4.589-.175-.18-13.89-26.595-13.966-26.898-.069-.272 7.132-4.07 7.34-3.872.103.098 3.273 5.986 7.046 13.086z" fill="url(#paint0_linear_106_2381)"/><defs><linearGradient id="paint0_linear_106_2381" x1="0" y1="0" x2="168.577" y2="79.085" gradientUnits="userSpaceOnUse"><stop stop-color="#208275"/><stop offset="1" stop-color="#2DD4BF"/></linearGradient></defs></svg>