<svg width="120" height="140" fill="none" xmlns="http://www.w3.org/2000/svg"><path fill-rule="evenodd" clip-rule="evenodd" d="M26.318.117c-.33.052-.862.34-1.183.642-.581.548-.581.549-.581 4.453v3.905H13.189c-8.331 0-11.522.073-11.955.274C-.086 10.003 0 5.485 0 72.548v61.622l.658.748.657.748 37.354.114 37.354.115 2.648 1.333c1.723.868 3.572 1.583 5.293 2.048 2.51.677 2.865.715 6.925.724 4.47.009 5.42-.115 8.898-1.165 5.448-1.645 10.964-5.623 14.617-10.542 1.509-2.032 3.694-6.528 4.403-9.058 2.904-10.369.442-20.812-6.723-28.517A29.098 29.098 0 0099.9 82.902l-2.027-.666-.114-36.044c-.063-19.824-.14-36.071-.17-36.105-.03-.033-.383-.265-.786-.514-.704-.437-1.164-.454-12.05-.455h-11.32V5.623c0-4.082-.243-4.907-1.576-5.37-.592-.205-6.303-.268-22.864-.252-12.14.012-22.345.064-22.675.115zm42.61 11.176v6.757H28.834V4.536h40.094v6.757zm-35.59.115v2.29h4.505v-4.58H33.34v2.29zm26.806 0v2.29h4.28v-4.58h-4.28v2.29zm-35.59 6.087v3.797l.658.67.659.669h7.468l.003 1.775c.001.976.064 2.007.138 2.29l.136.516H10.37l-.736.668-.735.669v45.77c0 25.175.074 46.042.166 46.373.091.331.446.795.788 1.031.598.413 1.665.432 27.653.495l27.03.065.731 1.58c.865 1.867 2.381 4.191 3.93 6.019l1.114 1.318H4.506V13.699h20.048v3.796zM93.48 47.597v33.9h-4.505V55.28c0-19.837-.066-26.361-.27-26.816-.562-1.255-.544-1.253-12.896-1.253H64.423V22.63h3.787c3.533 0 3.82-.032 4.294-.48.81-.769.93-1.41.93-5.032v-3.42H93.48v33.898zM59.918 24.921v2.29h-10.9c-9.733 0-10.916-.038-11.038-.361-.075-.2-.136-1.23-.136-2.291v-1.928h22.074v2.29zm-24.32 8.145c4.258 7.567 14.793 9.947 21.984 4.966 1.676-1.161 3.605-3.226 4.599-4.922l.77-1.317h21.52v25.31c0 21.421-.048 25.31-.313 25.31-.677 0-3.97 1.262-6.047 2.32l-2.192 1.115H17.796v4.582h52.5l-1.46 1.823c-.802 1.004-1.57 2.034-1.705 2.29-.245.467-.321.468-24.79.468H17.796v4.58h23.332c18.58 0 23.309.06 23.215.287-.065.158-.39 1.137-.721 2.176l-.603 1.89H17.797v4.58h44.491l.033 2.691c.03 2.358.297 4.8.665 6.07.11.38-1.176.401-24.79.401H13.291V31.793h21.591l.716 1.273zm21.046-.114c-.719.745-1.796 1.502-3.016 2.119l-1.898.96h-2.832c-2.79 0-2.859-.014-4.522-.825-1.57-.766-4.055-2.73-4.055-3.205 0-.121 3.651-.208 8.72-.208h8.72l-1.117 1.159zM17.796 52.178v2.29h62.17v-4.58h-62.17v2.29zm0 8.933v2.29h62.17v-4.58h-62.17v2.29zm0 9.047v2.176h62.17v-4.352h-62.17v2.176zm0 9.048v2.29h62.17v-4.58h-62.17v2.29zm79.852 7.654c6.617 1.99 12.162 6.594 15.189 12.613 3.507 6.974 3.605 15.272.261 22.216-7.418 15.404-27.393 18.821-39.224 6.71-3.945-4.039-6.308-8.995-6.998-14.681-1.431-11.804 6.054-23.323 17.37-26.728 2.671-.804 3.477-.891 7.545-.813 3.36.064 4.078.148 5.857.683zm1.577 6.084c-.248.107-5.646 5.488-11.995 11.958l-11.544 11.763v8.615l.658.669.659.67h8.463l11.56-11.739c11.714-11.895 12.066-12.301 11.814-13.641-.13-.693-6.802-7.673-7.791-8.15-.848-.409-1.159-.434-1.824-.145zm4.167 8.816c0 .129-4.434 4.744-9.854 10.256l-9.854 10.022h-3.718v-3.32l10.077-10.248 10.076-10.249 1.637 1.653c.899.909 1.636 1.758 1.636 1.886z" fill="url(#paint0_linear_736_27)"/><defs><linearGradient id="paint0_linear_736_27" x1="0" y1="0" x2="151.757" y2="61.023" gradientUnits="userSpaceOnUse"><stop stop-color="#208275"/><stop offset="1" stop-color="#2DD4BF"/></linearGradient></defs></svg>