<svg width="120" height="140" fill="none" xmlns="http://www.w3.org/2000/svg"><path fill-rule="evenodd" clip-rule="evenodd" d="M10.725.177C9.207.593 9.25.2 9.25 13.327v11.891H7.11c-1.176 0-2.552.127-3.058.281-1.164.356-2.864 1.872-3.536 3.152L0 29.637v105.824l.518.988c.7 1.336 1.837 2.451 3.11 3.052 1.053.498 1.136.499 30.447.499 24.38 0 29.55-.056 30.328-.33 1.427-.502 2.911-1.857 3.54-3.234l.553-1.214.003-27.889.002-27.89h23.143c26.242 0 24.533.125 26.542-1.925 1.918-1.956 1.862-1.322 1.786-20.199-.062-15.438-.093-16.517-.502-17.471-.546-1.274-2.383-2.983-3.607-3.357-.691-.212-6.882-.284-24.124-.284H68.545l-.08-3.404c-.076-3.193-.12-3.472-.714-4.502-.708-1.23-1.951-2.296-3.21-2.755-.462-.169-1.816-.312-3.007-.317l-2.166-.01-.004-11.646c-.003-8.774-.075-11.79-.293-12.23-.16-.321-.624-.783-1.032-1.026-.667-.397-.823-.408-1.532-.106-.435.185-1.753 1.055-2.93 1.933l-2.14 1.596-2.417-1.762c-1.329-.97-2.6-1.832-2.828-1.916-.632-.233-1.476.193-3.955 1.998l-2.279 1.66-2.488-1.832C35.7.586 34.78.056 34.286.056c-.667 0-1.443.472-4.573 2.78l-1.2.885-2.295-1.695c-2.681-1.98-3.159-2.205-4-1.879-.483.188-3.05 1.95-4.904 3.367-.148.114-1.184-.493-2.538-1.488C12.115.073 11.735-.1 10.725.176zM25.24 6.705c3.083 2.27 3.406 2.3 5.824.534.948-.692 2.053-1.497 2.458-1.79l.735-.53 2.427 1.788c2.82 2.078 3.508 2.232 5.026 1.121.502-.367 1.605-1.17 2.452-1.782l1.54-1.114 2.437 1.782c2.988 2.185 3.476 2.258 5.453.814l1.326-.969v27.737H13.466v-13.87c0-11.027.06-13.834.293-13.697.16.094.78.53 1.378.97 1.69 1.242 2.262 1.133 5.15-.98 1.336-.978 2.45-1.784 2.474-1.792.025-.007 1.14.793 2.479 1.778zm-3.343 6.742c-1.323.244-2.13 1.726-1.62 2.98.568 1.4.42 1.386 14.155 1.386h12.56l.684-.698c1.244-1.27.78-3.114-.903-3.591-.853-.242-23.6-.312-24.876-.077zm-.632 10.102c-.71.291-1.318 1.563-1.126 2.352.084.347.375.873.645 1.169l.492.537h25.936l.574-.632c.818-.9.774-2.068-.11-2.97l-.685-.698-12.605.015c-6.934.009-12.838.11-13.121.227zM9.251 31.877v2.358l-1.19.117c-1.55.151-2.196.776-2.196 2.12 0 .775.136 1.1.652 1.552l.652.571h54.242l.618-.63c1.401-1.429.337-3.67-1.743-3.67h-.919v-4.776h1.885c1.71 0 1.94.057 2.484.613l.601.612-.145 52.001-.145 52.001-.492.418c-.463.393-2.212.418-29.39.418-28.584 0-28.9-.006-29.364-.478-.466-.475-.468-.796-.468-52.517 0-49.262.021-52.058.41-52.403.615-.547.958-.626 2.81-.646l1.698-.019v2.358zm105.78 9.149c.502.48.542.711.542 3.105v2.586H68.501v-6.21h45.988l.542.519zM12.346 43.105c-1.443.512-2.198 1.168-3.06 2.657l-.62 1.075V71.68l.638 1.11c.82 1.422 1.753 2.213 3.176 2.696 1.017.344 3.345.378 22.197.32l21.06-.065.96-.523c.527-.288 1.304-.925 1.727-1.416 1.58-1.837 1.529-1.344 1.529-14.543 0-13.2.052-12.707-1.53-14.544-.422-.49-1.2-1.128-1.727-1.416l-.959-.523-21.077-.055c-19.935-.052-21.144-.032-22.314.384zm42.906 4.465c.325.331.368 1.723.368 11.689 0 9.965-.043 11.357-.367 11.688-.33.335-2.562.375-21.065.375H13.492l-.364-.531c-.317-.462-.365-1.962-.365-11.532 0-9.571.048-11.071.365-11.533l.364-.53h20.696c18.503 0 20.735.039 21.064.374zm60.321 7.15v3.464H68.501v-6.928h47.072v3.464zm0 13.537c0 5.038-.049 5.83-.387 6.211-.371.418-1.408.437-23.536.437H68.5V62.483h47.073v5.774zM12.617 81.042c-.274.055-.748.371-1.054.703-.54.586-.558.736-.631 5.302-.048 2.976.02 5.027.184 5.594.431 1.483.936 1.613 6.22 1.613h4.597l.684-.698.685-.698v-5.17c0-3.247-.094-5.35-.253-5.652-.502-.957-1.568-1.16-5.887-1.126-2.226.018-4.271.077-4.545.132zm17.096 0c-.274.055-.748.371-1.054.703-.54.586-.558.736-.631 5.302-.048 2.976.02 5.027.184 5.594.431 1.483.936 1.613 6.22 1.613h4.597l.684-.698.685-.698v-5.17c0-3.247-.094-5.35-.253-5.652-.502-.957-1.568-1.16-5.887-1.126-2.226.018-4.272.077-4.545.132zm16.133.093c-1.377.422-1.502 1.017-1.421 6.796.095 6.778-.476 6.204 6.16 6.204 6.631 0 6.066.563 6.161-6.134.047-3.257-.018-5.27-.182-5.674-.495-1.218-.94-1.326-5.627-1.378-2.383-.026-4.674.058-5.091.186zm-26.81 6.49l-.067 2.21-1.815.07-1.815.07v-4.56h3.765l-.067 2.21zm17.097 0l-.068 2.21-1.814.07-1.816.07v-4.56H36.2l-.067 2.21zm16.209.06v2.27h-3.513v-4.54h3.513v2.27zM11.664 99.608l-.657.576-.072 4.955c-.05 3.455.012 5.163.208 5.644.537 1.323.819 1.387 6.023 1.387h4.767l.684-.698.685-.698v-5.051c0-5.11-.09-5.737-.916-6.385-.264-.206-1.778-.293-5.218-.298-4.79-.008-4.855-.001-5.504.568zm17.096 0l-.657.576-.072 4.955c-.05 3.455.012 5.163.207 5.644.538 1.323.82 1.387 6.024 1.387h4.767l.684-.698.685-.698v-5.051c0-5.11-.09-5.737-.916-6.385-.264-.206-1.778-.293-5.218-.298-4.79-.008-4.855-.001-5.504.568zm16.304.122l-.685.699v10.345l.685.698.684.698h4.806c4.742 0 4.815-.007 5.463-.576l.657-.576.072-5.282.07-5.281-.697-.712-.697-.71h-9.674l-.684.697zm-25.977 5.871v2.27h-3.748v-4.539h3.748v2.269zm17.095 0v2.27h-3.746v-4.539h3.746v2.269zm16.16 0v2.27h-3.513v-4.539h3.513v2.269zm-40.627 11.918c-.78.794-.865 1.538-.781 6.77l.073 4.593.649.662.649.662 3.898.081c4.66.097 5.795-.043 6.543-.806.552-.563.556-.608.556-5.852v-5.284l-.684-.699-.685-.698h-4.83c-4.779 0-4.835.006-5.389.571zm17.095 0c-.778.794-.864 1.538-.78 6.77l.073 4.593.649.662.649.662 4.126.08c4.728.091 5.537-.011 6.312-.802.556-.567.559-.602.559-5.855v-5.284l-.685-.699-.684-.698h-4.83c-4.779 0-4.835.006-5.389.571zm16.344.005l-.658.576-.07 5.259-.072 5.258.696.794.696.795h9.679l.696-.795.695-.794-.07-5.258-.072-5.259-.657-.576c-.648-.568-.723-.576-5.432-.576-4.708 0-4.784.008-5.431.576zm-26.067 5.993v2.27h-3.748v-4.539h3.748v2.269zm17.095 0v2.27h-3.746v-4.539h3.746v2.269zm16.16 0v2.27h-3.513v-4.539h3.513v2.269z" fill="url(#paint0_linear_736_298)"/><defs><linearGradient id="paint0_linear_736_298" x1="0" y1="0" x2="151.757" y2="61.023" gradientUnits="userSpaceOnUse"><stop stop-color="#208275"/><stop offset="1" stop-color="#2DD4BF"/></linearGradient></defs></svg>