<svg width="140" height="140" fill="none" xmlns="http://www.w3.org/2000/svg"><path fill-rule="evenodd" clip-rule="evenodd" d="M109.051.135c-10.727 1.58-19.286 9.91-21.271 20.701l-.415 2.256-28.878.074-28.88.073-1.947 1.017c-2.209 1.153-4.193 3.082-5.203 5.058-.385.753-4.698 15.908-10.168 35.73-5.224 18.93-9.845 35.278-10.268 36.327-1.78 4.418-2.415 10.052-1.782 15.796 1.24 11.257 8.705 19.953 19.17 22.333 2.088.474 4.666.5 50.352.5 38.18 0 48.527-.073 49.964-.352 9.014-1.753 16.068-8.07 18.916-16.94 1.964-6.113 1.783-14.615-.437-20.58-.593-1.593-14.405-51.013-14.77-52.849-.055-.276.637-.922 1.986-1.852 4.92-3.393 8.735-9.091 10.278-15.352.739-2.996.784-8.362.097-11.57C133.617 10.33 126.3 2.662 116.752.545c-2.311-.512-5.761-.696-7.701-.41zm7.073 7.38c3.412.907 5.604 2.246 8.277 5.055 3.323 3.493 4.687 6.442 5.283 11.421.662 5.53-1.27 11.168-5.279 15.404-2.05 2.166-4.197 3.542-7.269 4.659-1.825.664-2.455.754-5.307.757-2.957.003-3.431-.07-5.504-.84-4.993-1.857-8.265-4.894-10.657-9.889-1.62-3.383-2.168-8.7-1.3-12.62 1.44-6.514 6.779-12.187 13.12-13.942 2.554-.707 5.994-.71 8.636-.006zm-4.813 5.389c-1 .37-1.035.727-1.035 10.524 0 5.235-.089 9.518-.197 9.518-.109 0-2.001-1.907-4.204-4.238-4.222-4.466-4.826-4.857-5.785-3.738-.969 1.13-.668 1.59 4.814 7.348 7.329 7.699 6.736 7.699 14.109-.01 4.374-4.573 4.983-5.316 4.983-6.072 0-.487-.205-1.058-.473-1.314-1.032-.987-1.553-.643-5.74 3.786-2.203 2.331-4.095 4.238-4.203 4.238-.109 0-.198-4.353-.198-9.673 0-7.411-.075-9.738-.323-9.948-.461-.389-1.293-.59-1.748-.421zM87.753 30.608c0 .991 1.242 4.97 2.137 6.85 3.607 7.57 10.633 12.933 18.49 14.113 1.89.284 6.587.176 8.109-.186l.647-.154 5.149 18.68c2.832 10.275 5.208 18.848 5.28 19.05.102.29-.041.276-.652-.057-1.392-.76-4.082-1.747-6.178-2.266-1.953-.484-4.258-.507-50.974-.507H20.833l-2.462.72c-1.354.396-3.254 1.099-4.221 1.562-1.448.694-1.734.76-1.619.374.078-.257 3.52-12.712 7.649-27.676 4.129-14.964 7.706-27.681 7.95-28.26.48-1.145 1.696-2.27 2.847-2.634.401-.127 13.34-.242 28.753-.255l28.023-.023v.669zm32.461 63.035c3.534.955 6.689 3.065 9.138 6.111 1.195 1.487 1.762 2.593 2.97 5.792.785 2.077.832 2.411.937 6.628.127 5.137-.206 7.298-1.596 10.353-2.13 4.68-5.98 8.155-10.773 9.727l-1.942.636H20.833l-1.812-.653c-4.961-1.788-8.263-4.747-10.475-9.386-1.547-3.244-1.894-5.374-1.764-10.811.1-4.189.166-4.708.767-6.084.361-.827.856-2.085 1.1-2.795 1.35-3.938 6.296-8.182 11.075-9.505 1.822-.504 3.514-.522 50.19-.537 47.253-.014 48.348-.003 50.3.525zM30.032 103.66c-5.788 1.643-8.51 8.454-5.646 14.129.95 1.883 2.358 3.266 4.343 4.267 1.215.613 1.765.717 3.754.712 1.964-.006 2.553-.118 3.754-.718 2.011-1.006 3.393-2.379 4.405-4.382.753-1.488.89-2.055.978-4.054.084-1.89 0-2.613-.449-3.87-1.118-3.133-3.345-5.271-6.35-6.097-1.873-.516-2.936-.512-4.789.013zm54.673 1.629c-1.084.801-.593 2.639.801 3.002.31.08 6.939.111 14.729.068 12.793-.07 14.206-.122 14.594-.532.563-.594.548-1.75-.031-2.426-.447-.522-.871-.538-14.99-.538-12.73 0-14.6.053-15.103.426zm-49.547 2.2c4.645 2.446 4.27 9.635-.605 11.594-2.672 1.074-6.074-.316-7.366-3.008-2.647-5.518 2.752-11.333 7.97-8.586zm34.558 10.414c-1.189.25-1.59 1.819-.724 2.829.452.527.916.538 22.903.538 21.988 0 22.452-.011 22.903-.538.579-.675.594-1.832.031-2.426-.393-.415-2.303-.457-22.49-.488-12.133-.019-22.314.019-22.623.085z" fill="url(#paint0_linear_736_386)"/><defs><linearGradient id="paint0_linear_736_386" x1="0" y1="0" x2="168.577" y2="79.085" gradientUnits="userSpaceOnUse"><stop stop-color="#208275"/><stop offset="1" stop-color="#2DD4BF"/></linearGradient></defs></svg>