<svg width="140" height="140" fill="none" xmlns="http://www.w3.org/2000/svg"><path fill-rule="evenodd" clip-rule="evenodd" d="M55.06.136c-16.406 1.122-30.816 12.04-36.058 27.32-2.142 6.244-2.401 8.96-2.286 23.889.085 10.966.114 11.611.573 12.968.266.786.817 1.942 1.225 2.57 1.517 2.335 4.697 4.578 7.023 4.954 1 .161.93.042 2.005 3.393.883 2.752 2.728 6.333 4.552 8.835 1.715 2.353 5.5 5.956 7.916 7.534l1.883 1.23v2.293l-6.655 1c-7.719 1.159-9.643 1.647-13.164 3.34-5.616 2.7-10.179 7.195-13.031 12.836-.585 1.156-2.36 6.382-4.976 14.651C1.83 134.019 0 139.857 0 139.924c0 .066 29.45.095 65.443.063l65.442-.058.066-2.222.067-2.223-3.423-.064-3.422-.063-.066-2.211-.066-2.211 5.505-.076c5.448-.075 5.517-.082 6.677-.686 1.391-.724 2.761-2.153 3.372-3.518.426-.951.439-1.771.379-23.119-.059-21.061-.083-22.171-.492-22.933-.744-1.385-2.464-2.94-3.797-3.432-1.197-.443-1.844-.455-24.57-.455h-23.34l.57-1.886c.872-2.886.85-2.85 1.92-3.029 1.76-.293 4.012-1.607 5.562-3.243 1.677-1.771 2.63-3.609 3.002-5.785.188-1.099.237-5.83.17-16.153-.09-13.938-.118-14.695-.593-16.736-1.654-7.105-5.693-12.88-11.75-16.8-1.642-1.062-2.647-1.913-3.53-2.989-1.574-1.916-4.092-4.22-5.909-5.407C75.47 3.545 72.1 1.91 70.245 1.303 66.922.216 60.785-.255 55.06.136zm11.598 4.911c5.177 1.113 9.714 3.979 13.36 8.44 1.104 1.35 1.858 2.03 2.811 2.536 4.135 2.19 7.977 6.39 9.782 10.691 1.603 3.82 1.657 4.289 1.761 15.22.052 5.452.009 9.875-.097 9.83a52.103 52.103 0 01-1.348-.686c-.636-.33-1.6-.732-2.14-.892l-.984-.29v-9.301H88c-4.296 0-7.061-1.547-9.746-5.452-.56-.815-1.134-1.405-1.363-1.402-3.594.046-10.726.573-13.705 1.013-11.895 1.759-22.136 5.78-32.69 12.836-2.605 1.742-3.418 2.169-4.504 2.367-1.087.199-2.257.662-4.525 1.791-.261.13-.205-12.788.066-15.154 1.846-16.139 14.76-29.32 31.006-31.648 2.83-.406 3.386-.43 7.985-.349 2.93.052 4.977.202 6.134.45zm8.927 34.2c1.665 2.372 5.013 4.605 8.102 5.402l1.602.414.068 1.252.068 1.253H76.33c-8.89 0-9.115.01-10.02.495-1.099.588-2.692 2.18-3.22 3.216-.206.406-.44 1.203-.52 1.771l-.142 1.033h-9.136l-.148-1.086c-.183-1.345-1.274-3.269-2.287-4.032-1.795-1.352-2.486-1.501-6.987-1.507-2.559-.003-4.07-.086-3.934-.217.436-.421 5.599-2.841 8.089-3.792 8.471-3.235 16.64-4.857 25.717-5.108 1.139-.031 1.209.003 1.842.906zM48.021 52.572c.72.711.876 1.627.779 4.595-.08 2.428-.084 2.445-.836 3.108l-.756.667H31.904l-.676-.669-.677-.668v-6.243l.677-.668.676-.668h15.564l.553.546zm36.566-.004c.692.685.902 2.001.776 4.866-.095 2.132-.119 2.214-.841 2.851l-.744.657H68.474l-.677-.669-.676-.668v-3.148c0-3.106.008-3.158.622-3.79l.621-.641h15.674l.549.542zm-58.665 8.38v6.407l-.72-.368c-4.155-2.123-5.081-7.698-1.788-10.766.631-.589 2.218-1.676 2.45-1.68.032 0 .058 2.883.058 6.407zm65.154-5.756c1.056.64 2.143 1.837 2.72 2.994.709 1.42.72 4.024.026 5.5-.573 1.214-1.937 2.612-3.151 3.227l-.868.44V61.06c0-6.823-.035-6.662 1.273-5.869zM62.57 59.683c.308 2.22 1.871 4.228 4.075 5.235.995.455 1.488.485 8.979.55 4.907.042 8.252-.02 8.782-.165.47-.129.887-.203.925-.166.038.038-.035 1.153-.162 2.48-.254 2.647-.845 5.193-1.748 7.535l-.586 1.521-3.171.085c-2.731.073-3.306.155-4.148.594-1.526.796-2.535 1.797-3.237 3.21-.608 1.223-.651 1.507-.728 4.877l-.081 3.578-2.002.914c-2.32 1.06-4.4 1.694-7.325 2.232-2.47.454-7.357.352-9.956-.208-6.731-1.45-12.885-5.52-16.845-11.142-2.838-4.03-4.792-9.849-4.792-14.272v-1.429l1.01.213c.554.117 4.486.181 8.736.144 7.502-.067 7.763-.085 8.886-.595 2.019-.918 3.625-2.85 3.935-4.732.084-.503.192-1.043.242-1.2.068-.217 1.19-.286 4.58-.286h4.489l.142 1.027zM46.6 77.746c.297 2.135 1.757 4.08 3.813 5.077l1.315.638h6.134c5.748 0 6.2-.03 7.186-.482 2.238-1.022 3.83-3.01 4.08-5.096l.14-1.167H67.04c-2.158 0-2.23.017-2.366.55-.077.303-.4.791-.717 1.086-.573.532-.624.536-6.134.536h-5.556l-.559-.641c-.307-.353-.559-.841-.559-1.086 0-.411-.176-.445-2.346-.445h-2.346l.143 1.03zm88.042 3.985c.285.234.623.7.752 1.036.151.392.235 6.684.235 17.626v17.018h-59.49l.062-17.51.062-17.509.65-.551.649-.552 28.282.007c27.26.008 28.3.023 28.799.435zM49.186 95.799c1.02.293 2.942.712 4.271.931 4.06.67 10.238.127 14.22-1.251.752-.26 1.403-.473 1.447-.473.044 0 .079.489.078 1.086-.006 2.79-3.6 6.24-7.565 7.26-1.763.454-5.733.444-7.56-.019-3.94-.997-7.555-4.536-7.555-7.395 0-.84.057-.959.404-.826.223.085 1.24.394 2.26.687zm-1.242 19.539c2.904 8.606 5.253 15.673 5.22 15.706-.066.065-12.102-9.102-12.62-9.611-.254-.249.095-1.092 2.04-4.93 1.289-2.546 2.313-4.657 2.273-4.693-.04-.035-2.12-1.078-4.622-2.318l-4.551-2.255 1.39-3.429c.763-1.886 1.43-3.472 1.483-3.524.127-.128 3.366-.66 3.779-.622.221.02 2.048 5.128 5.608 15.676zm-16.018-11.044c-.655 1.619-1.387 3.432-1.627 4.031l-.437 1.088 4.49 2.214 4.49 2.214-2.202 4.343c-1.995 3.938-2.164 4.37-1.81 4.625.216.156 3.981 3.042 8.368 6.415l7.977 6.133-11.274.06c-6.2.032-11.3.032-11.333 0-.033-.033.38-3.526.917-7.762 1.125-8.867 1.35-7.817-1.743-8.089l-1.769-.156-.141.886c-.078.488-.509 3.87-.959 7.517-.449 3.646-.867 6.861-.93 7.144l-.112.514H15.04c-4.835 0-8.79-.061-8.79-.136 0-.075 1.366-4.473 3.038-9.773 3.223-10.223 4.073-12.285 6.206-15.056 2.928-3.804 6.764-6.576 11.239-8.124 1.795-.621 6.21-1.458 6.316-1.197.038.091-.468 1.49-1.123 3.109zM71.51 114.61l-.009 9.773-4.185 3.201c-2.302 1.76-4.32 3.278-4.486 3.373-.165.095 1.696-5.744 4.135-12.974 2.44-7.231 4.462-13.146 4.494-13.146.032 0 .055 4.397.05 9.773zm-17.987-6.807c.595.008.52.247-.727 2.296l-1.132 1.86-.836-2.476c-.459-1.361-.835-2.534-.835-2.607 0-.072.703.106 1.563.395.859.289 1.744.528 1.967.532zm11.559 1.377c-.463 1.383-.899 2.515-.968 2.515-.154 0-2.02-2.966-2.126-3.379-.047-.185.61-.532 1.776-.939a71.375 71.375 0 012.005-.679c.085-.018-.225 1.099-.688 2.482zm15.694 1.364v2.294h4.646l-.066-2.229-.067-2.229-2.256-.065-2.257-.066v2.295zm9.027.008v2.286h22.913v-4.572H89.803v2.286zm-29.663 3.595l2.087 3.481-2.155 6.35c-1.202 3.539-2.22 6.198-2.299 6.007-.429-1.031-4.077-12.042-4.077-12.307 0-.173.85-1.718 1.888-3.434 1.937-3.202 2.299-3.749 2.407-3.64.034.034 1.001 1.629 2.15 3.543zm75.446 9.352c-.088 1.36-.174 1.584-.841 2.172l-.743.656h-27.991c-21.208 0-28.137-.066-28.597-.274-.845-.38-1.267-1.313-1.267-2.801v-1.269h59.537l-.098 1.516zm-61.57 5.691c.345.317 1.095.806 1.668 1.086.971.474 1.406.514 6.423.581l5.381.072v4.542h-11.39c-10.848 0-11.372-.019-10.988-.4.377-.373 8.063-6.402 8.212-6.441.037-.009.35.242.694.56zm45.594 3.938l-.066 2.229-13.713.059-13.714.059v-4.576h27.559l-.066 2.229z" fill="url(#paint0_linear_736_454)"/><defs><linearGradient id="paint0_linear_736_454" x1="0" y1="0" x2="168.577" y2="79.085" gradientUnits="userSpaceOnUse"><stop stop-color="#208275"/><stop offset="1" stop-color="#2DD4BF"/></linearGradient></defs></svg>