<svg width="170" height="120" fill="none" xmlns="http://www.w3.org/2000/svg"><path fill-rule="evenodd" clip-rule="evenodd" d="M6.717.201C4.411.67 2.276 2.434.964 4.954L.358 6.12l-.07 47.969-.07 47.969.559 1.534c.662 1.82 2.363 3.684 4.214 4.62l1.283.649 31.398.074 31.397.073v5.515H62.87c-6.737 0-7.386.123-8.002 1.511-.512 1.154-.379 2.004.464 2.973l.784.902 28.462.073c20.993.054 28.657-.01 29.209-.245 2.138-.907 2.399-3.581.465-4.754-.649-.393-1.657-.46-6.969-.46h-6.212v-5.515l31.398-.073 31.397-.074 1.263-.639c1.611-.815 3.238-2.485 4.032-4.14l.622-1.297V6.12l-.617-1.186c-.951-1.829-2.375-3.28-4.046-4.123l-1.523-.767-77.855-.04C42.923-.02 7.362.07 6.718.2zm156.504 5.86c.523.36 1.052 1.04 1.235 1.587.243.725.325 11.181.336 43.007l.015 42.05H5.327l.07-42.513.07-42.513.564-.78c.31-.428.855-.933 1.21-1.12.509-.269 17.115-.342 77.857-.346l77.209-.004.914.631zm-81.996 9.324c-2.156.397-5.91 1.938-7.719 3.169-3.941 2.681-7.168 6.998-8.667 11.594-.662 2.03-.72 2.57-.72 6.628 0 4.06.058 4.6.72 6.629 2.99 9.17 10.896 15.052 20.231 15.052 7.406 0 13.614-3.428 17.722-9.786 2.327-3.602 3.39-7.375 3.387-12.014-.007-9.689-5.911-17.744-15.192-20.726-2.16-.693-7.376-.985-9.762-.546zm7.84 5.672c6.854 1.816 11.753 8.208 11.831 15.434.014 1.372-.134 3.179-.33 4.014-.593 2.524-2.112 5.377-3.935 7.392-1.93 2.132-3.814 3.386-6.63 4.415-1.67.61-2.426.72-4.93.72-2.506 0-3.261-.11-4.932-.72-2.811-1.027-4.7-2.283-6.616-4.4-3.004-3.32-4.278-6.681-4.272-11.274.01-7.223 4.652-13.473 11.516-15.502 2.097-.62 6.112-.658 8.298-.079zm-2.247 13.237c-2.588 1.59-4.817 2.891-4.953 2.893-.136.002-.867-.68-1.624-1.515-1.228-1.356-1.493-1.52-2.459-1.52-1.658 0-2.665 1.255-2.559 3.186.031.558 2.934 4.393 4.227 5.584 1.305 1.201 2.045.942 8.535-2.988 3.278-1.986 6.172-3.864 6.43-4.174.768-.92.62-2.602-.315-3.562-1.316-1.351-1.976-1.161-7.282 2.096zM60.867 67.001c-.998.424-1.602 1.386-1.602 2.554 0 .904.163 1.26.873 1.911l.872.8h48.12l.872-.8c1.177-1.08 1.233-2.695.133-3.826l-.74-.76-23.996-.053c-13.198-.03-24.238.049-24.533.174zm-.757 11.456c-1.003.955-1.185 1.989-.562 3.183.342.657.825 1.093 1.453 1.313 1.21.424 17.163.487 18.611.074 2.091-.597 2.779-2.921 1.31-4.43l-.785-.807H60.81l-.701.667zm104.696 20.807c-.003 1.819-.496 3.09-1.427 3.672-.844.529-2.073.538-78.402.538l-77.544.002-.772-.565c-.833-.61-1.324-1.958-1.326-3.647l-.002-1.036h159.474l-.001 1.036zM95.693 111.76v2.762H74.448v-5.524h21.244v2.762z" fill="url(#paint0_linear_73_2081)"/><defs><linearGradient id="paint0_linear_73_2081" x1=".217" y1="0" x2="173.28" y2="114.724" gradientUnits="userSpaceOnUse"><stop stop-color="#208275"/><stop offset="1" stop-color="#2DD4BF"/></linearGradient></defs></svg>