<svg width="140" height="140" fill="none" xmlns="http://www.w3.org/2000/svg"><path fill-rule="evenodd" clip-rule="evenodd" d="M35.959.402c-1.393.527-3.181 2.231-3.819 3.639l-.529 1.169-.11 31.588-.112 31.587-15.658 5.597L.072 79.578.016 103.75c-.045 19.222 0 24.193.222 24.275.153.056 7.788 2.774 16.967 6.039L33.893 140l6.596-2.355 6.596-2.356h34.702c38.964 0 35.835.14 37.878-1.694.634-.57 1.364-1.524 1.722-2.253l.622-1.265.062-26.652.061-26.653 6.38-.073c5.983-.07 6.444-.103 7.418-.553 1.468-.677 2.931-2.106 3.545-3.462.512-1.13.525-1.316.525-7.37v-6.21l-.592-1.108c-.709-1.33-1.933-2.536-3.295-3.248-.973-.509-1.169-.524-7.49-.59l-6.491-.068-.062-24.33c-.071-27.886.112-25.532-2.154-27.767-2.229-2.198 2.095-2-43.217-1.98C40.066.03 36.865.06 35.96.403zm80.354 4.348c.337.173.732.577.878.897.2.44.265 6.434.265 24.524v23.943h-4.442V17.963H40.607v25.964c0 25.539-.007 25.962-.428 25.829-.236-.075-1.21-.42-2.166-.769l-1.737-.632-.058-31.018c-.043-22.956.008-31.179.197-31.637.548-1.33-2.104-1.248 40.35-1.258 33.277-.007 39.025.037 39.548.308zM58.82 11.196v2.33h27.112l-.063-2.272-.063-2.274-13.493-.057-13.493-.057v2.33zm31.539.002v2.329H94.8V8.869h-4.44v2.33zm18.213 27.17v15.746H87.716l-8.533 3.183c-4.923 1.836-8.86 3.43-9.304 3.77-2.59 1.971-2.725 6.162-.269 8.32.842.74 2.132 1.295 8.882 3.82 7.296 2.728 7.886 2.988 7.749 3.408-.082.25-.2 1.12-.26 1.933-.149 1.96.333 3.386 1.628 4.825 1.376 1.528 2.82 2.18 5.253 2.368l1.948.15-.06 4.35c-.058 4.182-.077 4.35-.504 4.35-.334 0-1.441-1.486-4.463-5.988-4.73-7.05-5.017-7.32-7.753-7.32-1.382 0-1.732.088-2.677.672a5.747 5.747 0 00-1.76 1.756l-.672 1.085-.067 4.967c-.05 3.622-.137 4.945-.323 4.883-.14-.047-1.073-3.347-2.07-7.333-1-3.986-1.94-7.546-2.091-7.911-.37-.89-1.75-2.104-2.774-2.442-1.348-.444-3.082-.188-4.24.628-.548.386-1.055.701-1.127.701-.072 0-4.366-1.513-9.544-3.362l-9.414-3.362V22.62h63.301v15.747zM49.713 33.82v6.764h54.194V27.056H49.713v6.765zm49.752-.111v2.218h-45.31v-4.436h45.31v2.218zM49.713 47.35v2.33l18.047-.057 18.046-.056.063-2.274.063-2.273H49.713v2.33zm0 8.981v2.218h17.991v-4.436H49.713v2.218zm63.301 4.547v2.329H90.359V58.55h22.655v2.329zm9.054 4.491l.059 6.71h-4.671V58.534l2.277.063 2.276.063.059 6.71zm12.172-6.495c1.288.537 1.429 1.184 1.429 6.566 0 5.111-.151 5.89-1.243 6.386-.343.156-1.949.252-4.209.252h-3.655V58.55h3.45c2.527 0 3.658.087 4.228.325zm-48.323 6.44c0 4.377-.063 5.655-.278 5.654-.152-.001-1.177-.335-2.276-.743l-2-.741v-8.15l2.11-.826c1.161-.454 2.186-.83 2.277-.837.092-.007.167 2.532.167 5.643zm-9.197 2.27c-.13.13-3.155-.982-3.852-1.415-.541-.337-.68-1.272-.231-1.55.148-.09 1.122-.486 2.165-.878l1.897-.713.064 2.225c.035 1.224.016 2.273-.043 2.332zm36.294 2.276v2.218H90.359v-4.436h22.655v2.218zm-64.467 7.682l14.715 5.245v41.967l-12.716 4.533a13565.17 13565.17 0 01-14.715 5.238l-1.998.706-14.66-5.239-14.659-5.239-.056-20.976L4.4 82.802l14.605-5.23c8.032-2.876 14.654-5.24 14.715-5.252.062-.013 6.733 2.338 14.826 5.223zm45.605-.158c.595.594.65.78.65 2.218v1.57h-1.323c-1.589 0-2.38-.322-2.804-1.142-1.185-2.288 1.664-4.457 3.477-2.646zm14.366 12.825l-.057 13.474-20.38.057-20.381.056.057-11.257c.038-7.318.136-11.257.28-11.257.122 0 1.072 3.345 2.11 7.432 1.038 4.087 2.093 7.778 2.343 8.203.938 1.592 3.33 2.618 5.15 2.208 1.184-.267 2.508-1.297 3.096-2.407.493-.933.516-1.19.516-5.582 0-2.533.061-4.763.135-4.956.075-.193.359-.35.632-.35.404 0 1.219 1.08 4.326 5.741 2.105 3.158 4.094 5.998 4.42 6.31 1.989 1.901 5.804 1.583 7.491-.626 1.069-1.399 1.19-2.096 1.2-6.935l.01-4.49h4.44v-4.658H99.52l-.11-1.83c-.06-1.007-.183-2.005-.273-2.218-.154-.363.15-.388 4.636-.388h4.801l-.057 13.474zm8.933 12.864c-.004 24.62-.03 26.369-.389 26.811-.211.26-.602.584-.868.721-.351.178-8.258.243-28.43.232l-27.945-.015 1.333-.505c.733-.278 2.507-.931 3.942-1.451l2.61-.945v-1.504h8.984c9.918 0 10.806-.088 12.058-1.185 1.37-1.201 1.603-2.03 1.603-5.691 0-2.655-.071-3.373-.41-4.119-.521-1.144-1.8-2.204-3.037-2.515-.614-.154-4.244-.241-10.087-.241h-9.127l.063-2.163.064-2.162 22.6-.057 22.599-.056V76.737h4.442l-.005 26.337zM26.723 81.481c-4.415 1.07-7.957 5.029-8.558 9.561-.151 1.146-.211 7.12-.169 16.856.063 14.238.09 15.125.482 15.858.587 1.097 1.012 1.532 2.028 2.075.871.466 1.12.477 12.66.547 8.35.051 12.116-.003 12.955-.186 1.482-.322 2.98-1.661 3.346-2.99.166-.606.243-5.749.241-16.191-.003-16.646-.032-17.11-1.254-19.624-1.314-2.704-4.752-5.334-7.803-5.97-1.63-.339-12.472-.29-13.928.064zM41.1 86.354c1.36.607 2.657 1.8 3.275 3.01.455.89.892 3.092.894 4.506l.002.832H22.616v-1.735c0-2.438.462-3.638 1.984-5.16 1.883-1.883 2.15-1.939 9.282-1.96 5.895-.016 6.075-.004 7.218.507zm4.171 24.206v11.2H22.616v-22.4h22.655v11.2zm-18.213-4.547v2.218H31.5v9.093h4.665v-9.093h4.442v-4.436H27.058v2.218zm58.859 13.529v2.218H67.704v-4.436h18.213v2.218z" fill="url(#paint0_linear_736_328)"/><defs><linearGradient id="paint0_linear_736_328" x1="0" y1="0" x2="168.577" y2="79.085" gradientUnits="userSpaceOnUse"><stop stop-color="#208275"/><stop offset="1" stop-color="#2DD4BF"/></linearGradient></defs></svg>